STARTFONT 2.1
FONT -Bitstream-Terminal-Medium-R-Normal--18-180-75-75-C-110-DEC-DECtech
SIZE 18 75 75
FONTBOUNDINGBOX 11 20 0 -5

STARTPROPERTIES 24
FOUNDRY "Bitstream"
FAMILY_NAME "Terminal"
WEIGHT_NAME "Medium"
SLANT "R"
SETWIDTH_NAME "Normal"
ADD_STYLE_NAME ""
PIXEL_SIZE 18
POINT_SIZE 180
RESOLUTION_X 75
RESOLUTION_Y 75
SPACING "C"
AVERAGE_WIDTH 110
CHARSET_REGISTRY "DEC"
CHARSET_ENCODING "DECtech"
CAP_HEIGHT 11
COPYRIGHT "Copyright (c) 1991 Digital Equipment Corporation. All Rights Reserved."
_DEC_PRODUCTINFO "DECterm Fonts V2.2, 11-Nov-1991"
FULL_NAME "Terminal"
WEIGHT 10
X_HEIGHT -3
QUAD_WIDTH 11
DEFAULT_CHAR 159
FONT_DESCENT 5
FONT_ASCENT 15
ENDPROPERTIES

CHARS 182

STARTCHAR space
ENCODING 32
SWIDTH 565 0
DWIDTH 11 0
BBX 11 20 0 -5
BITMAP
0000
0000
0000
0000
0000
0000
0000
0000
0000
0000
0000
0000
0000
0000
0000
0000
0000
0000
0000
0000
ENDCHAR

STARTCHAR exclam
ENCODING 33
SWIDTH 565 0
DWIDTH 11 0
BBX 11 20 0 -5
BITMAP
0000
0000
0000
0000
0600
0600
0600
0600
0600
0600
0600
0000
0600
0F00
0600
0000
0000
0000
0000
0000
ENDCHAR

STARTCHAR quotedbl
ENCODING 34
SWIDTH 565 0
DWIDTH 11 0
BBX 11 20 0 -5
BITMAP
0000
0000
1980
1980
1980
1980
1980
0000
0000
0000
0000
0000
0000
0000
0000
0000
0000
0000
0000
0000
ENDCHAR

STARTCHAR numbersign
ENCODING 35
SWIDTH 565 0
DWIDTH 11 0
BBX 11 20 0 -5
BITMAP
0000
0000
0000
0000
1980
1980
1980
1980
1980
FFE0
1980
1980
FFE0
1980
1980
1980
1980
1980
0000
0000
ENDCHAR

STARTCHAR dollar
ENCODING 36
SWIDTH 565 0
DWIDTH 11 0
BBX 11 20 0 -5
BITMAP
0000
0000
0400
0400
1F80
3980
3180
3000
3800
1F00
0380
0180
3180
3380
3F00
0400
0400
0400
0000
0000
ENDCHAR

STARTCHAR percent
ENCODING 37
SWIDTH 565 0
DWIDTH 11 0
BBX 11 20 0 -5
BITMAP
0000
0000
0000
0000
3800
6C00
4400
6C00
3980
0E00
3380
06C0
0440
06C0
0380
0000
0000
0000
0000
0000
ENDCHAR

STARTCHAR ampersand
ENCODING 38
SWIDTH 565 0
DWIDTH 11 0
BBX 11 20 0 -5
BITMAP
0000
0000
0000
0000
0D00
1B00
1300
1800
0800
1D80
3500
3700
3300
3300
1D80
0000
0000
0000
0000
0000
ENDCHAR

STARTCHAR quoteright
ENCODING 39
SWIDTH 565 0
DWIDTH 11 0
BBX 11 20 0 -5
BITMAP
0000
0000
0700
0600
0600
0C00
0400
0000
0000
0000
0000
0000
0000
0000
0000
0000
0000
0000
0000
0000
ENDCHAR

STARTCHAR parenleft
ENCODING 40
SWIDTH 565 0
DWIDTH 11 0
BBX 11 20 0 -5
BITMAP
0000
0000
0000
0100
0200
0600
0400
0C00
0C00
0C00
0C00
0C00
0C00
0C00
0400
0600
0200
0100
0000
0000
ENDCHAR

STARTCHAR parenright
ENCODING 41
SWIDTH 565 0
DWIDTH 11 0
BBX 11 20 0 -5
BITMAP
0000
0000
0000
0800
0400
0600
0200
0300
0300
0300
0300
0300
0300
0300
0200
0600
0400
0800
0000
0000
ENDCHAR

STARTCHAR asterisk
ENCODING 42
SWIDTH 565 0
DWIDTH 11 0
BBX 11 20 0 -5
BITMAP
0000
0000
0000
0000
0000
0000
0600
0600
36C0
1F80
0F00
0F00
1980
1980
0000
0000
0000
0000
0000
0000
ENDCHAR

STARTCHAR plus
ENCODING 43
SWIDTH 565 0
DWIDTH 11 0
BBX 11 20 0 -5
BITMAP
0000
0000
0000
0000
0000
0600
0600
0600
0600
3FC0
3FC0
0600
0600
0600
0600
0000
0000
0000
0000
0000
ENDCHAR

STARTCHAR comma
ENCODING 44
SWIDTH 565 0
DWIDTH 11 0
BBX 11 20 0 -5
BITMAP
0000
0000
0000
0000
0000
0000
0000
0000
0000
0000
0000
0000
0700
0700
0600
0600
0C00
0400
0000
0000
ENDCHAR

STARTCHAR minus
ENCODING 45
SWIDTH 565 0
DWIDTH 11 0
BBX 11 20 0 -5
BITMAP
0000
0000
0000
0000
0000
0000
0000
0000
0000
7FC0
7FC0
0000
0000
0000
0000
0000
0000
0000
0000
0000
ENDCHAR

STARTCHAR period
ENCODING 46
SWIDTH 565 0
DWIDTH 11 0
BBX 11 20 0 -5
BITMAP
0000
0000
0000
0000
0000
0000
0000
0000
0000
0000
0000
0000
0600
0F00
0600
0000
0000
0000
0000
0000
ENDCHAR

STARTCHAR slash
ENCODING 47
SWIDTH 565 0
DWIDTH 11 0
BBX 11 20 0 -5
BITMAP
0000
0000
0000
00C0
0080
0180
0100
0300
0200
0600
0400
0C00
0800
1800
1000
3000
0000
0000
0000
0000
ENDCHAR

STARTCHAR zero
ENCODING 48
SWIDTH 565 0
DWIDTH 11 0
BBX 11 20 0 -5
BITMAP
0000
0000
0000
0000
0E00
1B00
1100
3180
3180
3180
3180
3180
1100
1B00
0E00
0000
0000
0000
0000
0000
ENDCHAR

STARTCHAR one
ENCODING 49
SWIDTH 565 0
DWIDTH 11 0
BBX 11 20 0 -5
BITMAP
0000
0000
0000
0000
0600
0E00
1600
0600
0600
0600
0600
0600
0600
0600
1F80
0000
0000
0000
0000
0000
ENDCHAR

STARTCHAR two
ENCODING 50
SWIDTH 565 0
DWIDTH 11 0
BBX 11 20 0 -5
BITMAP
0000
0000
0000
0000
1F00
3380
3180
0180
0180
0300
0600
0C00
1800
3180
3F80
0000
0000
0000
0000
0000
ENDCHAR

STARTCHAR three
ENCODING 51
SWIDTH 565 0
DWIDTH 11 0
BBX 11 20 0 -5
BITMAP
0000
0000
0000
0000
1F00
3380
0180
0180
0300
0E00
0300
0180
0180
3180
1F00
0000
0000
0000
0000
0000
ENDCHAR

STARTCHAR four
ENCODING 52
SWIDTH 565 0
DWIDTH 11 0
BBX 11 20 0 -5
BITMAP
0000
0000
0000
0000
0300
0700
0700
0B00
1B00
1300
3300
3F80
0300
0300
0780
0000
0000
0000
0000
0000
ENDCHAR

STARTCHAR five
ENCODING 53
SWIDTH 565 0
DWIDTH 11 0
BBX 11 20 0 -5
BITMAP
0000
0000
0000
0000
3F00
3000
3000
3000
3E00
3300
0180
0180
0180
3300
1E00
0000
0000
0000
0000
0000
ENDCHAR

STARTCHAR six
ENCODING 54
SWIDTH 565 0
DWIDTH 11 0
BBX 11 20 0 -5
BITMAP
0000
0000
0000
0000
0700
0800
1800
1000
3600
3B00
3180
3180
3180
1B00
0E00
0000
0000
0000
0000
0000
ENDCHAR

STARTCHAR seven
ENCODING 55
SWIDTH 565 0
DWIDTH 11 0
BBX 11 20 0 -5
BITMAP
0000
0000
0000
0000
3F80
3180
0180
0300
0300
0200
0600
0600
0400
0C00
0C00
0000
0000
0000
0000
0000
ENDCHAR

STARTCHAR eight
ENCODING 56
SWIDTH 565 0
DWIDTH 11 0
BBX 11 20 0 -5
BITMAP
0000
0000
0000
0000
0E00
1B00
3180
3180
1B00
0E00
1B00
3180
3180
1B00
0E00
0000
0000
0000
0000
0000
ENDCHAR

STARTCHAR nine
ENCODING 57
SWIDTH 565 0
DWIDTH 11 0
BBX 11 20 0 -5
BITMAP
0000
0000
0000
0000
0E00
1B00
3180
3180
3180
1B80
0D80
0100
0300
0600
1C00
0000
0000
0000
0000
0000
ENDCHAR

STARTCHAR colon
ENCODING 58
SWIDTH 565 0
DWIDTH 11 0
BBX 11 20 0 -5
BITMAP
0000
0000
0000
0000
0000
0000
0600
0F00
0600
0000
0000
0000
0600
0F00
0600
0000
0000
0000
0000
0000
ENDCHAR

STARTCHAR semicolon
ENCODING 59
SWIDTH 565 0
DWIDTH 11 0
BBX 11 20 0 -5
BITMAP
0000
0000
0000
0000
0000
0000
0600
0F00
0600
0000
0000
0000
0E00
0E00
0C00
0C00
1800
0800
0000
0000
ENDCHAR

STARTCHAR less
ENCODING 60
SWIDTH 565 0
DWIDTH 11 0
BBX 11 20 0 -5
BITMAP
0000
0000
0000
0000
0000
00C0
03C0
0F00
3C00
7000
3C00
0F00
03C0
00C0
0000
0000
0000
0000
0000
0000
ENDCHAR

STARTCHAR equal
ENCODING 61
SWIDTH 565 0
DWIDTH 11 0
BBX 11 20 0 -5
BITMAP
0000
0000
0000
0000
0000
0000
0000
3FC0
3FC0
0000
0000
3FC0
3FC0
0000
0000
0000
0000
0000
0000
0000
ENDCHAR

STARTCHAR greater
ENCODING 62
SWIDTH 565 0
DWIDTH 11 0
BBX 11 20 0 -5
BITMAP
0000
0000
0000
0000
0000
6000
7800
1E00
0780
01C0
0780
1E00
7800
6000
0000
0000
0000
0000
0000
0000
ENDCHAR

STARTCHAR question
ENCODING 63
SWIDTH 565 0
DWIDTH 11 0
BBX 11 20 0 -5
BITMAP
0000
0000
0000
0000
1F80
30C0
00C0
00C0
0380
0E00
0C00
0000
0C00
1E00
0C00
0000
0000
0000
0000
0000
ENDCHAR

STARTCHAR at
ENCODING 64
SWIDTH 565 0
DWIDTH 11 0
BBX 11 20 0 -5
BITMAP
0000
0000
0000
0F00
3980
3080
60C0
63C0
64C0
6CC0
6CC0
6CC0
67E0
6000
3000
3840
0F80
0000
0000
0000
ENDCHAR

STARTCHAR A
ENCODING 65
SWIDTH 565 0
DWIDTH 11 0
BBX 11 20 0 -5
BITMAP
0000
0000
0000
0000
0E00
0E00
1B00
1B00
1B00
3180
3180
3F80
60C0
60C0
F1E0
0000
0000
0000
0000
0000
ENDCHAR

STARTCHAR B
ENCODING 66
SWIDTH 565 0
DWIDTH 11 0
BBX 11 20 0 -5
BITMAP
0000
0000
0000
0000
7F00
3180
3180
3180
3100
3F80
30C0
30C0
30C0
30C0
7F80
0000
0000
0000
0000
0000
ENDCHAR

STARTCHAR C
ENCODING 67
SWIDTH 565 0
DWIDTH 11 0
BBX 11 20 0 -5
BITMAP
0000
0000
0000
0000
1F40
31C0
60C0
60C0
6000
6000
6000
6000
6040
30C0
1F80
0000
0000
0000
0000
0000
ENDCHAR

STARTCHAR D
ENCODING 68
SWIDTH 565 0
DWIDTH 11 0
BBX 11 20 0 -5
BITMAP
0000
0000
0000
0000
7F00
3180
30C0
30C0
30C0
30C0
30C0
30C0
30C0
3180
7F00
0000
0000
0000
0000
0000
ENDCHAR

STARTCHAR E
ENCODING 69
SWIDTH 565 0
DWIDTH 11 0
BBX 11 20 0 -5
BITMAP
0000
0000
0000
0000
7FC0
1840
1840
1900
1900
1F00
1900
1940
1840
1840
7FC0
0000
0000
0000
0000
0000
ENDCHAR

STARTCHAR F
ENCODING 70
SWIDTH 565 0
DWIDTH 11 0
BBX 11 20 0 -5
BITMAP
0000
0000
0000
0000
7FC0
1840
1840
1900
1900
1F00
1900
1900
1800
1800
7E00
0000
0000
0000
0000
0000
ENDCHAR

STARTCHAR G
ENCODING 71
SWIDTH 565 0
DWIDTH 11 0
BBX 11 20 0 -5
BITMAP
0000
0000
0000
0000
1F40
31C0
60C0
60C0
6000
6000
63E0
60C0
60C0
30C0
1F80
0000
0000
0000
0000
0000
ENDCHAR

STARTCHAR H
ENCODING 72
SWIDTH 565 0
DWIDTH 11 0
BBX 11 20 0 -5
BITMAP
0000
0000
0000
0000
7BC0
3180
3180
3180
3180
3F80
3180
3180
3180
3180
7BC0
0000
0000
0000
0000
0000
ENDCHAR

STARTCHAR I
ENCODING 73
SWIDTH 565 0
DWIDTH 11 0
BBX 11 20 0 -5
BITMAP
0000
0000
0000
0000
3FC0
0600
0600
0600
0600
0600
0600
0600
0600
0600
3FC0
0000
0000
0000
0000
0000
ENDCHAR

STARTCHAR J
ENCODING 74
SWIDTH 565 0
DWIDTH 11 0
BBX 11 20 0 -5
BITMAP
0000
0000
0000
0000
1FC0
0300
0300
0300
0300
0300
4300
4300
4300
6300
3E00
0000
0000
0000
0000
0000
ENDCHAR

STARTCHAR K
ENCODING 75
SWIDTH 565 0
DWIDTH 11 0
BBX 11 20 0 -5
BITMAP
0000
0000
0000
0000
7BC0
3180
3300
3600
3C00
3E00
3300
3300
3180
3180
79C0
0000
0000
0000
0000
0000
ENDCHAR

STARTCHAR L
ENCODING 76
SWIDTH 565 0
DWIDTH 11 0
BBX 11 20 0 -5
BITMAP
0000
0000
0000
0000
7E00
1800
1800
1800
1800
1800
1800
1840
1840
1840
7FC0
0000
0000
0000
0000
0000
ENDCHAR

STARTCHAR M
ENCODING 77
SWIDTH 565 0
DWIDTH 11 0
BBX 11 20 0 -5
BITMAP
0000
0000
0000
0000
F1E0
71C0
6AC0
6AC0
6AC0
6AC0
64C0
64C0
60C0
60C0
F1E0
0000
0000
0000
0000
0000
ENDCHAR

STARTCHAR N
ENCODING 78
SWIDTH 565 0
DWIDTH 11 0
BBX 11 20 0 -5
BITMAP
0000
0000
0000
0000
71E0
38C0
38C0
34C0
34C0
32C0
32C0
31C0
31C0
30C0
7CC0
0000
0000
0000
0000
0000
ENDCHAR

STARTCHAR O
ENCODING 79
SWIDTH 565 0
DWIDTH 11 0
BBX 11 20 0 -5
BITMAP
0000
0000
0000
0000
1F00
3180
60C0
60C0
60C0
60C0
60C0
60C0
60C0
3180
1F00
0000
0000
0000
0000
0000
ENDCHAR

STARTCHAR P
ENCODING 80
SWIDTH 565 0
DWIDTH 11 0
BBX 11 20 0 -5
BITMAP
0000
0000
0000
0000
7F80
18C0
18C0
18C0
18C0
18C0
1F80
1800
1800
1800
7E00
0000
0000
0000
0000
0000
ENDCHAR

STARTCHAR Q
ENCODING 81
SWIDTH 565 0
DWIDTH 11 0
BBX 11 20 0 -5
BITMAP
0000
0000
0000
0000
1F00
3180
60C0
60C0
60C0
60C0
60C0
60C0
60C0
3180
1F00
0800
1760
19C0
0000
0000
ENDCHAR

STARTCHAR R
ENCODING 82
SWIDTH 565 0
DWIDTH 11 0
BBX 11 20 0 -5
BITMAP
0000
0000
0000
0000
7F80
31C0
30C0
30C0
3180
3F00
3180
3180
30C0
30C0
78E0
0000
0000
0000
0000
0000
ENDCHAR

STARTCHAR S
ENCODING 83
SWIDTH 565 0
DWIDTH 11 0
BBX 11 20 0 -5
BITMAP
0000
0000
0000
0000
0EC0
39C0
30C0
3000
3800
1F80
01C0
00C0
30C0
39C0
3700
0000
0000
0000
0000
0000
ENDCHAR

STARTCHAR T
ENCODING 84
SWIDTH 565 0
DWIDTH 11 0
BBX 11 20 0 -5
BITMAP
0000
0000
0000
0000
7FE0
4620
4620
4620
0600
0600
0600
0600
0600
0600
1F80
0000
0000
0000
0000
0000
ENDCHAR

STARTCHAR U
ENCODING 85
SWIDTH 565 0
DWIDTH 11 0
BBX 11 20 0 -5
BITMAP
0000
0000
0000
0000
79E0
30C0
30C0
30C0
30C0
30C0
30C0
30C0
30C0
1980
0F00
0000
0000
0000
0000
0000
ENDCHAR

STARTCHAR V
ENCODING 86
SWIDTH 565 0
DWIDTH 11 0
BBX 11 20 0 -5
BITMAP
0000
0000
0000
0000
F1E0
60C0
60C0
3180
3180
3180
1B00
1B00
0A00
0E00
0400
0000
0000
0000
0000
0000
ENDCHAR

STARTCHAR W
ENCODING 87
SWIDTH 565 0
DWIDTH 11 0
BBX 11 20 0 -5
BITMAP
0000
0000
0000
0000
F1E0
60C0
60C0
64C0
64C0
6EC0
6AC0
2A80
3B80
3180
3180
0000
0000
0000
0000
0000
ENDCHAR

STARTCHAR X
ENCODING 88
SWIDTH 565 0
DWIDTH 11 0
BBX 11 20 0 -5
BITMAP
0000
0000
0000
0000
7BC0
3180
1B00
1B00
0E00
0E00
0E00
1B00
1B00
3180
7BC0
0000
0000
0000
0000
0000
ENDCHAR

STARTCHAR Y
ENCODING 89
SWIDTH 565 0
DWIDTH 11 0
BBX 11 20 0 -5
BITMAP
0000
0000
0000
0000
79E0
30C0
1080
1980
0900
0F00
0600
0600
0600
0600
1F80
0000
0000
0000
0000
0000
ENDCHAR

STARTCHAR Z
ENCODING 90
SWIDTH 565 0
DWIDTH 11 0
BBX 11 20 0 -5
BITMAP
0000
0000
0000
0000
3FC0
20C0
2180
0180
0300
0300
0600
0C00
0C40
1840
3FC0
0000
0000
0000
0000
0000
ENDCHAR

STARTCHAR bracketleft
ENCODING 91
SWIDTH 565 0
DWIDTH 11 0
BBX 11 20 0 -5
BITMAP
0000
0000
0000
0F00
0C00
0C00
0C00
0C00
0C00
0C00
0C00
0C00
0C00
0C00
0C00
0C00
0F00
0000
0000
0000
ENDCHAR

STARTCHAR backslash
ENCODING 92
SWIDTH 565 0
DWIDTH 11 0
BBX 11 20 0 -5
BITMAP
0000
0000
0000
3000
1000
1800
0800
0C00
0400
0600
0200
0300
0100
0180
0080
00C0
0000
0000
0000
0000
ENDCHAR

STARTCHAR bracketright
ENCODING 93
SWIDTH 565 0
DWIDTH 11 0
BBX 11 20 0 -5
BITMAP
0000
0000
0000
1E00
0600
0600
0600
0600
0600
0600
0600
0600
0600
0600
0600
0600
1E00
0000
0000
0000
ENDCHAR

STARTCHAR asciicircum
ENCODING 94
SWIDTH 565 0
DWIDTH 11 0
BBX 11 20 0 -5
BITMAP
0000
0000
0000
0000
0000
0000
0400
0E00
1B00
3180
0000
0000
0000
0000
0000
0000
0000
0000
0000
0000
ENDCHAR

STARTCHAR ldblank
ENCODING 95
SWIDTH 565 0
DWIDTH 11 0
BBX 11 20 0 -5
BITMAP
0000
0000
0000
0000
0000
0000
0000
0000
0000
0000
0000
0000
0000
0000
0000
0000
0000
0000
0000
0000
ENDCHAR

STARTCHAR diamond
ENCODING 96
SWIDTH 565 0
DWIDTH 11 0
BBX 11 20 0 -5
BITMAP
0000
0000
0000
0000
0400
0E00
1F00
1F00
3F80
7FC0
3F80
1F00
1F00
0E00
0400
0000
0000
0000
0000
0000
ENDCHAR

STARTCHAR checkerboard
ENCODING 97
SWIDTH 565 0
DWIDTH 11 0
BBX 11 20 0 -5
BITMAP
AAA0
5540
AAA0
5540
AAA0
5540
AAA0
5540
AAA0
5540
AAA0
5540
AAA0
5540
AAA0
5540
AAA0
5540
AAA0
5540
ENDCHAR

STARTCHAR HT
ENCODING 98
SWIDTH 565 0
DWIDTH 11 0
BBX 11 20 0 -5
BITMAP
0000
0000
0000
6600
6600
7E00
6600
6600
6600
0000
01E0
00C0
00C0
00C0
00C0
00C0
0000
0000
0000
0000
ENDCHAR

STARTCHAR FF
ENCODING 99
SWIDTH 565 0
DWIDTH 11 0
BBX 11 20 0 -5
BITMAP
0000
0000
0000
7C00
6000
6000
7800
6000
6000
0000
03E0
0300
0300
03C0
0300
0300
0000
0000
0000
0000
ENDCHAR

STARTCHAR CR
ENCODING 100
SWIDTH 565 0
DWIDTH 11 0
BBX 11 20 0 -5
BITMAP
0000
0000
0000
3800
6400
6000
6000
6400
3800
0000
03C0
0320
0320
03C0
0360
0320
0000
0000
0000
0000
ENDCHAR

STARTCHAR LF
ENCODING 101
SWIDTH 565 0
DWIDTH 11 0
BBX 11 20 0 -5
BITMAP
0000
0000
0000
6000
6000
6000
6000
6000
7C00
0000
03E0
0300
0300
03C0
0300
0300
0000
0000
0000
0000
ENDCHAR

STARTCHAR degree
ENCODING 102
SWIDTH 565 0
DWIDTH 11 0
BBX 11 20 0 -5
BITMAP
0000
0000
0F00
1980
1080
1080
1980
0F00
0000
0000
0000
0000
0000
0000
0000
0000
0000
0000
0000
0000
ENDCHAR

STARTCHAR plusminus
ENCODING 103
SWIDTH 565 0
DWIDTH 11 0
BBX 11 20 0 -5
BITMAP
0000
0000
0000
0000
0600
0600
0600
3FC0
3FC0
0600
0600
0600
0000
3FC0
3FC0
0000
0000
0000
0000
0000
ENDCHAR

STARTCHAR NL
ENCODING 104
SWIDTH 565 0
DWIDTH 11 0
BBX 11 20 0 -5
BITMAP
0000
0000
0000
6600
6600
7600
6E00
6600
6600
0000
0180
0180
0180
0180
0180
01E0
0000
0000
0000
0000
ENDCHAR

STARTCHAR VT
ENCODING 105
SWIDTH 565 0
DWIDTH 11 0
BBX 11 20 0 -5
BITMAP
0000
0000
0000
6600
6600
6600
2400
3C00
1800
0000
01E0
00C0
00C0
00C0
00C0
00C0
0000
0000
0000
0000
ENDCHAR

STARTCHAR ldcornsqlr
ENCODING 106
SWIDTH 565 0
DWIDTH 11 0
BBX 11 20 0 -5
BITMAP
0600
0600
0600
0600
0600
0600
0600
0600
0600
FE00
FE00
0000
0000
0000
0000
0000
0000
0000
0000
0000
ENDCHAR

STARTCHAR ldcornsqur
ENCODING 107
SWIDTH 565 0
DWIDTH 11 0
BBX 11 20 0 -5
BITMAP
0000
0000
0000
0000
0000
0000
0000
0000
0000
FE00
FE00
0600
0600
0600
0600
0600
0600
0600
0600
0600
ENDCHAR

STARTCHAR ldcornsqul
ENCODING 108
SWIDTH 565 0
DWIDTH 11 0
BBX 11 20 0 -5
BITMAP
0000
0000
0000
0000
0000
0000
0000
0000
0000
07E0
07E0
0600
0600
0600
0600
0600
0600
0600
0600
0600
ENDCHAR

STARTCHAR ldcornsqll
ENCODING 109
SWIDTH 565 0
DWIDTH 11 0
BBX 11 20 0 -5
BITMAP
0600
0600
0600
0600
0600
0600
0600
0600
0600
07E0
07E0
0000
0000
0000
0000
0000
0000
0000
0000
0000
ENDCHAR

STARTCHAR ldcross
ENCODING 110
SWIDTH 565 0
DWIDTH 11 0
BBX 11 20 0 -5
BITMAP
0600
0600
0600
0600
0600
0600
0600
0600
0600
FFE0
FFE0
0600
0600
0600
0600
0600
0600
0600
0600
0600
ENDCHAR

STARTCHAR ldscan1
ENCODING 111
SWIDTH 565 0
DWIDTH 11 0
BBX 11 20 0 -5
BITMAP
0000
0000
FFE0
FFE0
0000
0000
0000
0000
0000
0000
0000
0000
0000
0000
0000
0000
0000
0000
0000
0000
ENDCHAR

STARTCHAR ldscan3
ENCODING 112
SWIDTH 565 0
DWIDTH 11 0
BBX 11 20 0 -5
BITMAP
0000
0000
0000
0000
0000
0000
FFE0
FFE0
0000
0000
0000
0000
0000
0000
0000
0000
0000
0000
0000
0000
ENDCHAR

STARTCHAR ldhorizontal
ENCODING 113
SWIDTH 565 0
DWIDTH 11 0
BBX 11 20 0 -5
BITMAP
0000
0000
0000
0000
0000
0000
0000
0000
0000
FFE0
FFE0
0000
0000
0000
0000
0000
0000
0000
0000
0000
ENDCHAR

STARTCHAR ldscan7
ENCODING 114
SWIDTH 565 0
DWIDTH 11 0
BBX 11 20 0 -5
BITMAP
0000
0000
0000
0000
0000
0000
0000
0000
0000
0000
0000
0000
0000
0000
FFE0
FFE0
0000
0000
0000
0000
ENDCHAR

STARTCHAR ldscan9
ENCODING 115
SWIDTH 565 0
DWIDTH 11 0
BBX 11 20 0 -5
BITMAP
0000
0000
0000
0000
0000
0000
0000
0000
0000
0000
0000
0000
0000
0000
0000
0000
0000
0000
FFE0
FFE0
ENDCHAR

STARTCHAR ldteelft
ENCODING 116
SWIDTH 565 0
DWIDTH 11 0
BBX 11 20 0 -5
BITMAP
0600
0600
0600
0600
0600
0600
0600
0600
0600
07E0
07E0
0600
0600
0600
0600
0600
0600
0600
0600
0600
ENDCHAR

STARTCHAR ldteert
ENCODING 117
SWIDTH 565 0
DWIDTH 11 0
BBX 11 20 0 -5
BITMAP
0600
0600
0600
0600
0600
0600
0600
0600
0600
FE00
FE00
0600
0600
0600
0600
0600
0600
0600
0600
0600
ENDCHAR

STARTCHAR ldteebt
ENCODING 118
SWIDTH 565 0
DWIDTH 11 0
BBX 11 20 0 -5
BITMAP
0600
0600
0600
0600
0600
0600
0600
0600
0600
FFE0
FFE0
0000
0000
0000
0000
0000
0000
0000
0000
0000
ENDCHAR

STARTCHAR ldteetp
ENCODING 119
SWIDTH 565 0
DWIDTH 11 0
BBX 11 20 0 -5
BITMAP
0000
0000
0000
0000
0000
0000
0000
0000
0000
FFE0
FFE0
0600
0600
0600
0600
0600
0600
0600
0600
0600
ENDCHAR

STARTCHAR ldvertical
ENCODING 120
SWIDTH 565 0
DWIDTH 11 0
BBX 11 20 0 -5
BITMAP
0600
0600
0600
0600
0600
0600
0600
0600
0600
0600
0600
0600
0600
0600
0600
0600
0600
0600
0600
0600
ENDCHAR

STARTCHAR lessequal
ENCODING 121
SWIDTH 565 0
DWIDTH 11 0
BBX 11 20 0 -5
BITMAP
0000
0000
0000
0000
0000
03C0
1FC0
7800
7800
1FC0
03C0
0000
0000
7FC0
7FC0
0000
0000
0000
0000
0000
ENDCHAR

STARTCHAR greaterequal
ENCODING 122
SWIDTH 565 0
DWIDTH 11 0
BBX 11 20 0 -5
BITMAP
0000
0000
0000
0000
0000
7800
7F00
03C0
03C0
7F00
7800
0000
0000
7FC0
7FC0
0000
0000
0000
0000
0000
ENDCHAR

STARTCHAR pi
ENCODING 123
SWIDTH 565 0
DWIDTH 11 0
BBX 11 20 0 -5
BITMAP
0000
0000
0000
0000
0000
0000
7FE0
18C0
18C0
3180
3180
3180
6300
6300
6180
0000
0000
0000
0000
0000
ENDCHAR

STARTCHAR notequal
ENCODING 124
SWIDTH 565 0
DWIDTH 11 0
BBX 11 20 0 -5
BITMAP
0000
0000
0000
0000
0000
0000
0100
7FC0
7FC0
0400
0800
7FC0
7FC0
1000
0000
0000
0000
0000
0000
0000
ENDCHAR

STARTCHAR sterling
ENCODING 125
SWIDTH 565 0
DWIDTH 11 0
BBX 11 20 0 -5
BITMAP
0000
0000
0000
0000
0FC0
18C0
1840
1800
0C00
3F80
0C00
0C00
1800
3E40
23C0
0000
0000
0000
0000
0000
ENDCHAR

STARTCHAR periodcentered
ENCODING 126
SWIDTH 565 0
DWIDTH 11 0
BBX 11 20 0 -5
BITMAP
0000
0000
0000
0000
0000
0000
0000
0000
0600
0F00
0F00
0600
0000
0000
0000
0000
0000
0000
0000
0000
ENDCHAR

STARTCHAR Error
ENCODING 159
SWIDTH 565 0
DWIDTH 11 0
BBX 11 20 0 -5
BITMAP
3F00
7F80
F380
E1C0
E1C0
E1C0
F000
7800
3C00
1C00
0E00
0E00
0E00
0000
0000
0E00
0E00
0E00
0000
0000
ENDCHAR

STARTCHAR space
ENCODING 160
SWIDTH 565 0
DWIDTH 11 0
BBX 11 20 0 -5
BITMAP
0000
0000
0000
0000
0000
0000
0000
0000
0000
0000
0000
0000
0000
0000
0000
0000
0000
0000
0000
0000
ENDCHAR

STARTCHAR ldradicalbt
ENCODING 161
SWIDTH 565 0
DWIDTH 11 0
BBX 11 20 0 -5
BITMAP
0600
0600
0600
0600
0600
0600
6600
F600
BE00
1E00
0E00
0E00
0600
0000
0000
0000
0000
0000
0000
0000
ENDCHAR

STARTCHAR ldradicaltp
ENCODING 162
SWIDTH 565 0
DWIDTH 11 0
BBX 11 20 0 -5
BITMAP
0000
0000
0000
0000
0000
0000
0000
0000
0000
07E0
07E0
0600
0600
0600
0600
0600
0600
0600
0600
0600
ENDCHAR

STARTCHAR ldhorizontal
ENCODING 163
SWIDTH 565 0
DWIDTH 11 0
BBX 11 20 0 -5
BITMAP
0000
0000
0000
0000
0000
0000
0000
0000
0000
FFE0
FFE0
0000
0000
0000
0000
0000
0000
0000
0000
0000
ENDCHAR

STARTCHAR ldintegraltp
ENCODING 164
SWIDTH 565 0
DWIDTH 11 0
BBX 11 20 0 -5
BITMAP
0000
01E0
03E0
0600
0600
0600
0600
0600
0600
0600
0600
0600
0600
0600
0600
0600
0600
0600
0600
0600
ENDCHAR

STARTCHAR ldintegralbt
ENCODING 165
SWIDTH 565 0
DWIDTH 11 0
BBX 11 20 0 -5
BITMAP
0600
0600
0600
0600
0600
0600
0600
0600
0600
0600
0600
0600
0600
0600
0600
0600
7C00
7800
0000
0000
ENDCHAR

STARTCHAR ldvertical
ENCODING 166
SWIDTH 565 0
DWIDTH 11 0
BBX 11 20 0 -5
BITMAP
0600
0600
0600
0600
0600
0600
0600
0600
0600
0600
0600
0600
0600
0600
0600
0600
0600
0600
0600
0600
ENDCHAR

STARTCHAR ldbracketlfttp
ENCODING 167
SWIDTH 565 0
DWIDTH 11 0
BBX 11 20 0 -5
BITMAP
0000
0000
0780
0600
0600
0600
0600
0600
0600
0600
0600
0600
0600
0600
0600
0600
0600
0600
0600
0600
ENDCHAR

STARTCHAR ldbracketlftbt
ENCODING 168
SWIDTH 565 0
DWIDTH 11 0
BBX 11 20 0 -5
BITMAP
0600
0600
0600
0600
0600
0600
0600
0600
0600
0600
0600
0600
0600
0600
0600
0600
0600
0780
0000
0000
ENDCHAR

STARTCHAR ldbracketrttp
ENCODING 169
SWIDTH 565 0
DWIDTH 11 0
BBX 11 20 0 -5
BITMAP
0000
0000
1E00
0600
0600
0600
0600
0600
0600
0600
0600
0600
0600
0600
0600
0600
0600
0600
0600
0600
ENDCHAR

STARTCHAR ldbracketrtbt
ENCODING 170
SWIDTH 565 0
DWIDTH 11 0
BBX 11 20 0 -5
BITMAP
0600
0600
0600
0600
0600
0600
0600
0600
0600
0600
0600
0600
0600
0600
0600
0600
0600
1E00
0000
0000
ENDCHAR

STARTCHAR ldbracelfttp
ENCODING 171
SWIDTH 565 0
DWIDTH 11 0
BBX 11 20 0 -5
BITMAP
0000
0000
0180
0300
0200
0600
0600
0600
0600
0600
0600
0600
0600
0600
0600
0600
0600
0600
0600
0600
ENDCHAR

STARTCHAR ldbracelftbt
ENCODING 172
SWIDTH 565 0
DWIDTH 11 0
BBX 11 20 0 -5
BITMAP
0600
0600
0600
0600
0600
0600
0600
0600
0600
0600
0600
0600
0600
0600
0600
0200
0300
0180
0000
0000
ENDCHAR

STARTCHAR ldbracerttp
ENCODING 173
SWIDTH 565 0
DWIDTH 11 0
BBX 11 20 0 -5
BITMAP
0000
0000
1800
0C00
0400
0600
0600
0600
0600
0600
0600
0600
0600
0600
0600
0600
0600
0600
0600
0600
ENDCHAR

STARTCHAR ldbracertbt
ENCODING 174
SWIDTH 565 0
DWIDTH 11 0
BBX 11 20 0 -5
BITMAP
0600
0600
0600
0600
0600
0600
0600
0600
0600
0600
0600
0600
0600
0600
0600
0400
0C00
1800
0000
0000
ENDCHAR

STARTCHAR ldbracelftmid
ENCODING 175
SWIDTH 565 0
DWIDTH 11 0
BBX 11 20 0 -5
BITMAP
0600
0600
0600
0600
0600
0600
0600
0600
0600
0C00
1800
0C00
0600
0600
0600
0600
0600
0600
0600
0600
ENDCHAR

STARTCHAR ldbracertmid
ENCODING 176
SWIDTH 565 0
DWIDTH 11 0
BBX 11 20 0 -5
BITMAP
0600
0600
0600
0600
0600
0600
0600
0600
0600
0300
0180
0300
0600
0600
0600
0600
0600
0600
0600
0600
ENDCHAR

STARTCHAR ldsigmalfttp
ENCODING 177
SWIDTH 565 0
DWIDTH 11 0
BBX 11 20 0 -5
BITMAP
0000
0000
0000
0000
0000
0000
0000
0000
0000
1FE0
1FE0
0C00
0600
0600
0300
0180
0180
00C0
0060
0060
ENDCHAR

STARTCHAR ldsigmalftbt
ENCODING 178
SWIDTH 565 0
DWIDTH 11 0
BBX 11 20 0 -5
BITMAP
0060
0060
00C0
00C0
0180
0180
0300
0300
0600
0FE0
0FE0
0000
0000
0000
0000
0000
0000
0000
0000
0000
ENDCHAR

STARTCHAR ldbackslash
ENCODING 179
SWIDTH 565 0
DWIDTH 11 0
BBX 11 20 0 -5
BITMAP
8000
C000
C000
6000
6000
3000
3000
1800
0C00
0C00
0600
0600
0300
0300
0180
00C0
00C0
0060
0060
0020
ENDCHAR

STARTCHAR ldslash
ENCODING 180
SWIDTH 565 0
DWIDTH 11 0
BBX 11 20 0 -5
BITMAP
0020
0060
0060
00C0
00C0
0180
0180
0300
0600
0600
0C00
0C00
1800
1800
3000
6000
6000
C000
C000
8000
ENDCHAR

STARTCHAR ldsigmarttp
ENCODING 181
SWIDTH 565 0
DWIDTH 11 0
BBX 11 20 0 -5
BITMAP
0000
0000
0000
0000
0000
0000
0000
0000
0000
FFE0
FFE0
0060
0060
0060
0000
0000
0000
0000
0000
0000
ENDCHAR

STARTCHAR ldsigmartbt
ENCODING 182
SWIDTH 565 0
DWIDTH 11 0
BBX 11 20 0 -5
BITMAP
0000
0000
0000
0000
0000
0000
0060
0060
0060
FFE0
FFE0
0000
0000
0000
0000
0000
0000
0000
0000
0000
ENDCHAR

STARTCHAR ldsigmamid
ENCODING 183
SWIDTH 565 0
DWIDTH 11 0
BBX 11 20 0 -5
BITMAP
8000
C000
C000
6000
6000
3000
3000
1800
1800
0C00
0C00
0C00
1800
1800
3000
6000
6000
C000
C000
8000
ENDCHAR

STARTCHAR lessequal
ENCODING 188
SWIDTH 565 0
DWIDTH 11 0
BBX 11 20 0 -5
BITMAP
0000
0000
0000
0000
0000
03C0
1FC0
7800
7800
1FC0
03C0
0000
0000
7FC0
7FC0
0000
0000
0000
0000
0000
ENDCHAR

STARTCHAR notequal
ENCODING 189
SWIDTH 565 0
DWIDTH 11 0
BBX 11 20 0 -5
BITMAP
0000
0000
0000
0000
0000
0000
0100
7FC0
7FC0
0400
0800
7FC0
7FC0
1000
0000
0000
0000
0000
0000
0000
ENDCHAR

STARTCHAR greaterequal
ENCODING 190
SWIDTH 565 0
DWIDTH 11 0
BBX 11 20 0 -5
BITMAP
0000
0000
0000
0000
0000
7800
7F00
03C0
03C0
7F00
7800
0000
0000
7FC0
7FC0
0000
0000
0000
0000
0000
ENDCHAR

STARTCHAR integral
ENCODING 191
SWIDTH 565 0
DWIDTH 11 0
BBX 11 20 0 -5
BITMAP
0000
01C0
03E0
0660
0600
0600
0600
0600
0600
0600
0600
0600
0600
0600
0600
0600
6600
7C00
3800
0000
ENDCHAR

STARTCHAR therefore
ENCODING 192
SWIDTH 565 0
DWIDTH 11 0
BBX 11 20 0 -5
BITMAP
0000
0000
0000
0000
0000
0000
0600
0F00
0600
0000
0000
0000
30C0
79E0
30C0
0000
0000
0000
0000
0000
ENDCHAR

STARTCHAR proportional
ENCODING 193
SWIDTH 565 0
DWIDTH 11 0
BBX 11 20 0 -5
BITMAP
0000
0000
0000
0000
0000
0000
38E0
7DE0
6700
4600
6700
7DE0
38E0
0000
0000
0000
0000
0000
0000
0000
ENDCHAR

STARTCHAR infinity
ENCODING 194
SWIDTH 565 0
DWIDTH 11 0
BBX 11 20 0 -5
BITMAP
0000
0000
0000
0000
0000
0000
71C0
FBE0
CE60
8420
CE60
FBE0
71C0
0000
0000
0000
0000
0000
0000
0000
ENDCHAR

STARTCHAR divide
ENCODING 195
SWIDTH 565 0
DWIDTH 11 0
BBX 11 20 0 -5
BITMAP
0000
0000
0000
0000
0000
0000
0600
0600
0000
3FC0
3FC0
0000
0600
0600
0000
0000
0000
0000
0000
0000
ENDCHAR

STARTCHAR Delta
ENCODING 196
SWIDTH 565 0
DWIDTH 11 0
BBX 11 20 0 -5
BITMAP
0000
0000
0000
0000
0400
0E00
0E00
1B00
1B00
3180
3180
60C0
60C0
C060
FFE0
0000
0000
0000
0000
0000
ENDCHAR

STARTCHAR gradient
ENCODING 197
SWIDTH 565 0
DWIDTH 11 0
BBX 11 20 0 -5
BITMAP
0000
0000
0000
0000
FFE0
C060
60C0
60C0
3180
3180
1B00
1B00
0E00
0E00
0400
0000
0000
0000
0000
0000
ENDCHAR

STARTCHAR Phi
ENCODING 198
SWIDTH 565 0
DWIDTH 11 0
BBX 11 20 0 -5
BITMAP
0000
0000
0000
0000
1F80
0600
1F80
36C0
6660
6660
6660
36C0
1F80
0600
1F80
0000
0000
0000
0000
0000
ENDCHAR

STARTCHAR Gamma
ENCODING 199
SWIDTH 565 0
DWIDTH 11 0
BBX 11 20 0 -5
BITMAP
0000
0000
0000
0000
7FC0
18C0
18C0
18C0
1800
1800
1800
1800
1800
1800
7F00
0000
0000
0000
0000
0000
ENDCHAR

STARTCHAR similar
ENCODING 200
SWIDTH 565 0
DWIDTH 11 0
BBX 11 20 0 -5
BITMAP
0000
0000
0000
0000
0000
0000
0000
0000
3CC0
7FC0
6780
0000
0000
0000
0000
0000
0000
0000
0000
0000
ENDCHAR

STARTCHAR approxequal
ENCODING 201
SWIDTH 565 0
DWIDTH 11 0
BBX 11 20 0 -5
BITMAP
0000
0000
0000
0000
0000
0000
38C0
7FC0
6780
0000
0000
7FC0
7FC0
0000
0000
0000
0000
0000
0000
0000
ENDCHAR

STARTCHAR Theta
ENCODING 202
SWIDTH 565 0
DWIDTH 11 0
BBX 11 20 0 -5
BITMAP
0000
0000
0000
0000
1F00
3180
60C0
60C0
6AC0
6EC0
6AC0
60C0
60C0
3180
1F00
0000
0000
0000
0000
0000
ENDCHAR

STARTCHAR multiply
ENCODING 203
SWIDTH 565 0
DWIDTH 11 0
BBX 11 20 0 -5
BITMAP
0000
0000
0000
0000
0000
0000
2080
3180
1B00
0E00
0E00
1B00
3180
2080
0000
0000
0000
0000
0000
0000
ENDCHAR

STARTCHAR Lambda
ENCODING 204
SWIDTH 565 0
DWIDTH 11 0
BBX 11 20 0 -5
BITMAP
0000
0000
0000
0000
0400
0E00
0E00
1B00
1B00
3180
3180
60C0
60C0
C060
F1E0
0000
0000
0000
0000
0000
ENDCHAR

STARTCHAR arrowdblboth
ENCODING 205
SWIDTH 565 0
DWIDTH 11 0
BBX 11 20 0 -5
BITMAP
0000
0000
0000
0000
0000
1100
3180
7FC0
FFE0
C060
FFE0
7FC0
3180
1100
0000
0000
0000
0000
0000
0000
ENDCHAR

STARTCHAR arrowdblright
ENCODING 206
SWIDTH 565 0
DWIDTH 11 0
BBX 11 20 0 -5
BITMAP
0000
0000
0000
0000
0200
0300
0180
FFC0
FFE0
0060
FFE0
FFC0
0180
0300
0200
0000
0000
0000
0000
0000
ENDCHAR

STARTCHAR equivalence
ENCODING 207
SWIDTH 565 0
DWIDTH 11 0
BBX 11 20 0 -5
BITMAP
0000
0000
0000
0000
0000
0000
3FC0
3FC0
0000
3FC0
3FC0
0000
3FC0
3FC0
0000
0000
0000
0000
0000
0000
ENDCHAR

STARTCHAR Pi
ENCODING 208
SWIDTH 565 0
DWIDTH 11 0
BBX 11 20 0 -5
BITMAP
0000
0000
0000
0000
7FC0
3180
3180
3180
3180
3180
3180
3180
3180
3180
7BC0
0000
0000
0000
0000
0000
ENDCHAR

STARTCHAR Psi
ENCODING 209
SWIDTH 565 0
DWIDTH 11 0
BBX 11 20 0 -5
BITMAP
0000
0000
0000
0000
1F80
0600
6660
6660
6660
6660
36C0
1F80
0600
0600
3FC0
0000
0000
0000
0000
0000
ENDCHAR

STARTCHAR Sigma
ENCODING 211
SWIDTH 565 0
DWIDTH 11 0
BBX 11 20 0 -5
BITMAP
0000
0000
0000
0000
7FC0
30C0
18C0
0CC0
0600
0200
0600
0CC0
18C0
30C0
7FC0
0000
0000
0000
0000
0000
ENDCHAR

STARTCHAR radical
ENCODING 214
SWIDTH 565 0
DWIDTH 11 0
BBX 11 20 0 -5
BITMAP
0000
0060
0060
00C0
00C0
00C0
0180
6180
6180
3300
3300
3300
1E00
1E00
0C00
0C00
0C00
0000
0000
0000
ENDCHAR

STARTCHAR Omega
ENCODING 215
SWIDTH 565 0
DWIDTH 11 0
BBX 11 20 0 -5
BITMAP
0000
0000
0000
0000
1F00
3180
60C0
60C0
60C0
60C0
60C0
3180
1100
5140
71C0
0000
0000
0000
0000
0000
ENDCHAR

STARTCHAR Xi
ENCODING 216
SWIDTH 565 0
DWIDTH 11 0
BBX 11 20 0 -5
BITMAP
0000
0000
0000
0000
7FC0
60C0
60C0
0000
3180
3F80
3180
0000
60C0
60C0
7FC0
0000
0000
0000
0000
0000
ENDCHAR

STARTCHAR Upsilon1
ENCODING 217
SWIDTH 565 0
DWIDTH 11 0
BBX 11 20 0 -5
BITMAP
0000
0000
0000
0000
6060
30C0
1980
1980
0F00
0F00
0600
0600
0600
0600
1F80
0000
0000
0000
0000
0000
ENDCHAR

STARTCHAR propersubset
ENCODING 218
SWIDTH 565 0
DWIDTH 11 0
BBX 11 20 0 -5
BITMAP
0000
0000
0000
0000
0FC0
3FC0
3000
6000
6000
6000
6000
6000
3000
3FC0
0FC0
0000
0000
0000
0000
0000
ENDCHAR

STARTCHAR propersuperset
ENCODING 219
SWIDTH 565 0
DWIDTH 11 0
BBX 11 20 0 -5
BITMAP
0000
0000
0000
0000
7E00
7F80
0180
00C0
00C0
00C0
00C0
00C0
0180
7F80
7E00
0000
0000
0000
0000
0000
ENDCHAR

STARTCHAR intersection
ENCODING 220
SWIDTH 565 0
DWIDTH 11 0
BBX 11 20 0 -5
BITMAP
0000
0000
0000
0000
1F00
3F80
60C0
60C0
60C0
60C0
60C0
60C0
60C0
60C0
60C0
0000
0000
0000
0000
0000
ENDCHAR

STARTCHAR union
ENCODING 221
SWIDTH 565 0
DWIDTH 11 0
BBX 11 20 0 -5
BITMAP
0000
0000
0000
0000
60C0
60C0
60C0
60C0
60C0
60C0
60C0
60C0
60C0
3F80
1F00
0000
0000
0000
0000
0000
ENDCHAR

STARTCHAR logicaland
ENCODING 222
SWIDTH 565 0
DWIDTH 11 0
BBX 11 20 0 -5
BITMAP
0000
0000
0000
0000
0000
0000
0400
0E00
0E00
1B00
1B00
3180
3180
60C0
60C0
0000
0000
0000
0000
0000
ENDCHAR

STARTCHAR logicalor
ENCODING 223
SWIDTH 565 0
DWIDTH 11 0
BBX 11 20 0 -5
BITMAP
0000
0000
0000
0000
0000
0000
60C0
60C0
3180
3180
1B00
1B00
0E00
0E00
0400
0000
0000
0000
0000
0000
ENDCHAR

STARTCHAR logicalnot
ENCODING 224
SWIDTH 565 0
DWIDTH 11 0
BBX 11 20 0 -5
BITMAP
0000
0000
0000
0000
0000
0000
0000
0000
3FC0
3FC0
00C0
00C0
00C0
0000
0000
0000
0000
0000
0000
0000
ENDCHAR

STARTCHAR alpha
ENCODING 225
SWIDTH 565 0
DWIDTH 11 0
BBX 11 20 0 -5
BITMAP
0000
0000
0000
0000
0000
0000
0F20
31E0
30C0
60C0
60C0
6180
6180
33A0
1EC0
0000
0000
0000
0000
0000
ENDCHAR

STARTCHAR beta
ENCODING 226
SWIDTH 565 0
DWIDTH 11 0
BBX 11 20 0 -5
BITMAP
0000
0000
0000
07C0
0C60
0860
1860
18C0
1B80
30C0
3060
3060
3060
78C0
6F80
6000
C000
C000
C000
0000
ENDCHAR

STARTCHAR chi
ENCODING 227
SWIDTH 565 0
DWIDTH 11 0
BBX 11 20 0 -5
BITMAP
0000
0000
0000
0000
0000
0000
3820
1860
0CC0
0D80
0D00
0600
0600
0E00
1E00
3300
6300
C300
83C0
0000
ENDCHAR

STARTCHAR delta
ENCODING 228
SWIDTH 565 0
DWIDTH 11 0
BBX 11 20 0 -5
BITMAP
0000
0000
0000
07C0
0C00
0C00
0600
0780
1980
30C0
30C0
30C0
30C0
1980
0F00
0000
0000
0000
0000
0000
ENDCHAR

STARTCHAR epsilon
ENCODING 229
SWIDTH 565 0
DWIDTH 11 0
BBX 11 20 0 -5
BITMAP
0000
0000
0000
0000
0000
0000
07C0
1E00
1800
3000
3F80
3000
3000
3800
1FC0
0000
0000
0000
0000
0000
ENDCHAR

STARTCHAR phi
ENCODING 230
SWIDTH 565 0
DWIDTH 11 0
BBX 11 20 0 -5
BITMAP
0000
0000
0000
0100
0100
0300
0F80
3AC0
3260
6660
6660
6660
64C0
35C0
1F00
0C00
0C00
0800
0800
0000
ENDCHAR

STARTCHAR gamma
ENCODING 231
SWIDTH 565 0
DWIDTH 11 0
BBX 11 20 0 -5
BITMAP
0000
0000
0000
0000
0000
0000
7060
30C0
3080
1980
1B00
0E00
0E00
0C00
0C00
1800
1000
3000
2000
0000
ENDCHAR

STARTCHAR eta
ENCODING 232
SWIDTH 565 0
DWIDTH 11 0
BBX 11 20 0 -5
BITMAP
0000
0000
0000
0000
0000
0000
7780
18C0
18C0
30C0
30C0
3180
6180
6180
6180
0300
0300
0300
0300
0000
ENDCHAR

STARTCHAR iota
ENCODING 233
SWIDTH 565 0
DWIDTH 11 0
BBX 11 20 0 -5
BITMAP
0000
0000
0000
0000
0000
0000
3C00
0C00
0C00
0C00
1800
1800
1800
1980
0F00
0000
0000
0000
0000
0000
ENDCHAR

STARTCHAR theta
ENCODING 234
SWIDTH 565 0
DWIDTH 11 0
BBX 11 20 0 -5
BITMAP
0000
0000
0000
0700
1D80
10C0
30C0
60C0
7FC0
60C0
6080
6180
6100
3700
1C00
0000
0000
0000
0000
0000
ENDCHAR

STARTCHAR kappa
ENCODING 235
SWIDTH 565 0
DWIDTH 11 0
BBX 11 20 0 -5
BITMAP
0000
0000
0000
0000
0000
0000
70C0
3180
3300
3600
3C00
6600
6200
6300
61C0
0000
0000
0000
0000
0000
ENDCHAR

STARTCHAR lambda
ENCODING 236
SWIDTH 565 0
DWIDTH 11 0
BBX 11 20 0 -5
BITMAP
0000
0000
0000
3800
0C00
0C00
0600
0E00
0E00
1B00
1300
3300
2180
6180
C1E0
0000
0000
0000
0000
0000
ENDCHAR

STARTCHAR nu
ENCODING 238
SWIDTH 565 0
DWIDTH 11 0
BBX 11 20 0 -5
BITMAP
0000
0000
0000
0000
0000
0000
78C0
18C0
18C0
18C0
1880
1980
1B00
1E00
1800
0000
0000
0000
0000
0000
ENDCHAR

STARTCHAR partialdiff
ENCODING 239
SWIDTH 565 0
DWIDTH 11 0
BBX 11 20 0 -5
BITMAP
0000
0000
0000
0000
1E00
0380
0180
00C0
0EC0
19C0
30C0
30C0
30C0
1980
0F00
0000
0000
0000
0000
0000
ENDCHAR

STARTCHAR pi
ENCODING 240
SWIDTH 565 0
DWIDTH 11 0
BBX 11 20 0 -5
BITMAP
0000
0000
0000
0000
0000
0000
7FE0
18C0
18C0
3180
3180
3180
6300
6300
6180
0000
0000
0000
0000
0000
ENDCHAR

STARTCHAR psi
ENCODING 241
SWIDTH 565 0
DWIDTH 11 0
BBX 11 20 0 -5
BITMAP
0000
0000
0000
0100
0100
0300
7360
3360
3260
6660
6660
66C0
44C0
6D80
3F00
0C00
0C00
0800
0800
0000
ENDCHAR

STARTCHAR rho
ENCODING 242
SWIDTH 565 0
DWIDTH 11 0
BBX 11 20 0 -5
BITMAP
0000
0000
0000
0000
0000
0000
0F80
18C0
3060
3060
3060
3060
3060
38C0
6F80
6000
6000
6000
6000
0000
ENDCHAR

STARTCHAR sigma
ENCODING 243
SWIDTH 565 0
DWIDTH 11 0
BBX 11 20 0 -5
BITMAP
0000
0000
0000
0000
0000
0000
1FE0
7180
60C0
C0C0
C0C0
C0C0
C180
6380
3E00
0000
0000
0000
0000
0000
ENDCHAR

STARTCHAR tau
ENCODING 244
SWIDTH 565 0
DWIDTH 11 0
BBX 11 20 0 -5
BITMAP
0000
0000
0000
0000
0000
0000
7FC0
0C00
0C00
0C00
1800
1800
1800
18C0
0F80
0000
0000
0000
0000
0000
ENDCHAR

STARTCHAR florin
ENCODING 246
SWIDTH 565 0
DWIDTH 11 0
BBX 11 20 0 -5
BITMAP
0000
0000
00E0
0180
0180
0300
0300
0FC0
0300
0300
0600
0600
0600
0600
0C00
0C00
1800
7000
0000
0000
ENDCHAR

STARTCHAR omega
ENCODING 247
SWIDTH 565 0
DWIDTH 11 0
BBX 11 20 0 -5
BITMAP
0000
0000
0000
0000
0000
0000
3060
3060
3260
6260
6660
6660
6660
6EC0
3B80
0000
0000
0000
0000
0000
ENDCHAR

STARTCHAR xi
ENCODING 248
SWIDTH 565 0
DWIDTH 11 0
BBX 11 20 0 -5
BITMAP
0000
0000
0000
3FC0
0C00
1800
1800
1800
0F00
3800
7000
6000
6000
6000
3F00
0180
0180
0380
0300
0000
ENDCHAR

STARTCHAR upsilon
ENCODING 249
SWIDTH 565 0
DWIDTH 11 0
BBX 11 20 0 -5
BITMAP
0000
0000
0000
0000
0000
0000
78C0
30C0
60C0
60C0
60C0
6080
6180
3300
1E00
0000
0000
0000
0000
0000
ENDCHAR

STARTCHAR zeta
ENCODING 250
SWIDTH 565 0
DWIDTH 11 0
BBX 11 20 0 -5
BITMAP
0000
0000
0000
3FC0
0300
0600
0C00
1800
3800
3000
6000
6000
6000
3000
1F80
00C0
00C0
01C0
0180
0000
ENDCHAR

STARTCHAR arrowleft
ENCODING 251
SWIDTH 565 0
DWIDTH 11 0
BBX 11 20 0 -5
BITMAP
0000
0000
0000
0000
0000
0000
1800
3000
6000
FFE0
FFE0
6000
3000
1800
0000
0000
0000
0000
0000
0000
ENDCHAR

STARTCHAR arrowup
ENCODING 252
SWIDTH 565 0
DWIDTH 11 0
BBX 11 20 0 -5
BITMAP
0000
0000
0600
0F00
1F80
36C0
0600
0600
0600
0600
0600
0600
0600
0600
0600
0600
0600
0000
0000
0000
ENDCHAR

STARTCHAR arrowright
ENCODING 253
SWIDTH 565 0
DWIDTH 11 0
BBX 11 20 0 -5
BITMAP
0000
0000
0000
0000
0000
0000
0300
0180
00C0
FFE0
FFE0
00C0
0180
0300
0000
0000
0000
0000
0000
0000
ENDCHAR

STARTCHAR arrowdown
ENCODING 254
SWIDTH 565 0
DWIDTH 11 0
BBX 11 20 0 -5
BITMAP
0000
0000
0000
0600
0600
0600
0600
0600
0600
0600
0600
0600
0600
0600
36C0
1F80
0F00
0600
0000
0000
ENDCHAR
ENDFONT
